HIERARCHY
ROOT Hips
{
    OFFSET   0.000000   0.000000   0.000000
    CHANNELS 6 Xposition Yposition Zposition Zrotation Xrotation Yrotation
    JOINT Chest
    {
        OFFSET   0.000000   8.007240   0.000000
        CHANNELS 3 Zrotation Xrotation Yrotation
        JOINT Chest2
        {
            OFFSET   0.000000  22.077100   0.000000
            CHANNELS 3 Zrotation Xrotation Yrotation
            JOINT Neck
            {
                OFFSET   0.000000  23.254800   0.000000
                CHANNELS 3 Zrotation Xrotation Yrotation
                JOINT Head
                {
                    OFFSET   0.000000  14.370000   1.956600
                    CHANNELS 3 Zrotation Xrotation Yrotation
                    End Site
                    {
                        OFFSET   0.000000  19.566000   0.000000
                    }
                }
            }
            JOINT LeftCollar
            {
                OFFSET   3.911900  19.017000  -0.467064
                CHANNELS 3 Zrotation Xrotation Yrotation
                JOINT LeftShoulder
                {
                    OFFSET  10.383700   0.000000   0.000000
                    CHANNELS 3 Zrotation Xrotation Yrotation
                    JOINT LeftElbow
                    {
                        OFFSET  26.662100   0.001476   0.000517
                        CHANNELS 3 Zrotation Xrotation Yrotation
                        JOINT LeftWrist
                        {
                            OFFSET  28.869000  -0.000025  -0.000106
                            CHANNELS 3 Zrotation Xrotation Yrotation
                            JOINT LeftFinger0
                            {
                                OFFSET   2.044660  -2.323460   3.252850
                                CHANNELS 3 Zrotation Xrotation Yrotation
                                JOINT LeftFinger01
                                {
                                    OFFSET   3.088130   0.000000   0.000000
                                    CHANNELS 3 Zrotation Xrotation Yrotation
                                    JOINT LeftFinger02
                                    {
                                        OFFSET   2.639460   0.000000   0.000000
                                        CHANNELS 3 Zrotation Xrotation Yrotation
                                        End Site
                                        {
                                            OFFSET   2.582190   0.000000   0.000000
                                        }
                                    }
                                }
                            }
                            JOINT LeftFinger1
                            {
                                OFFSET   8.364480   0.000000   3.252850
                                CHANNELS 3 Zrotation Xrotation Yrotation
                                JOINT LeftFinger11
                                {
                                    OFFSET   4.646930   0.000000   0.000000
                                    CHANNELS 3 Zrotation Xrotation Yrotation
                                    JOINT LeftFinger12
                                    {
                                        OFFSET   2.323460   0.000000   0.000000
                                        CHANNELS 3 Zrotation Xrotation Yrotation
                                        End Site
                                        {
                                            OFFSET   2.273050   0.000000   0.000000
                                        }
                                    }
                                }
                            }
                            JOINT LeftFinger2
                            {
                                OFFSET   8.364490   0.000015   1.078090
                                CHANNELS 3 Zrotation Xrotation Yrotation
                                JOINT LeftFinger21
                                {
                                    OFFSET   5.111620   0.000000   0.000000
                                    CHANNELS 3 Zrotation Xrotation Yrotation
                                    JOINT LeftFinger22
                                    {
                                        OFFSET   2.788160   0.000016   0.000000
                                        CHANNELS 3 Zrotation Xrotation Yrotation
                                        End Site
                                        {
                                            OFFSET   2.727660   0.000000   0.000000
                                        }
                                    }
                                }
                            }
                            JOINT LeftFinger3
                            {
                                OFFSET   7.899780   0.000017  -1.078090
                                CHANNELS 3 Zrotation Xrotation Yrotation
                                JOINT LeftFinger31
                                {
                                    OFFSET   4.646930   0.000000   0.000000
                                    CHANNELS 3 Zrotation Xrotation Yrotation
                                    JOINT LeftFinger32
                                    {
                                        OFFSET   2.323470   0.000000   0.000000
                                        CHANNELS 3 Zrotation Xrotation Yrotation
                                        End Site
                                        {
                                            OFFSET   2.273050   0.000000   0.000000
                                        }
                                    }
                                }
                            }
                            JOINT LeftFinger4
                            {
                                OFFSET   7.435090   0.000000  -3.252850
                                CHANNELS 3 Zrotation Xrotation Yrotation
                                JOINT LeftFinger41
                                {
                                    OFFSET   3.717550   0.000000   0.000000
                                    CHANNELS 3 Zrotation Xrotation Yrotation
                                    JOINT LeftFinger42
                                    {
                                        OFFSET   1.858770   0.000000   0.000000
                                        CHANNELS 3 Zrotation Xrotation Yrotation
                                        End Site
                                        {
                                            OFFSET   1.818440   0.000000   0.000000
                                        }
                                    }
                                }
                            }
                        }
                    }
                }
            }
            JOINT RightCollar
            {
                OFFSET  -3.911900  19.017000  -0.467063
                CHANNELS 3 Zrotation Xrotation Yrotation
                JOINT RightShoulder
                {
                    OFFSET -10.383700   0.000019   0.000000
                    CHANNELS 3 Zrotation Xrotation Yrotation
                    JOINT RightElbow
                    {
                        OFFSET -26.662100   0.001175   0.000102
                        CHANNELS 3 Zrotation Xrotation Yrotation
                        JOINT RightWrist
                        {
                            OFFSET -28.869000   0.000016  -0.000079
                            CHANNELS 3 Zrotation Xrotation Yrotation
                            JOINT RightFinger0
                            {
                                OFFSET  -2.044660  -2.323490   3.252850
                                CHANNELS 3 Zrotation Xrotation Yrotation
                                JOINT RightFinger01
                                {
                                    OFFSET  -3.088140   0.000000   0.000000
                                    CHANNELS 3 Zrotation Xrotation Yrotation
                                    JOINT RightFinger02
                                    {
                                        OFFSET  -2.639460   0.000000   0.000000
                                        CHANNELS 3 Zrotation Xrotation Yrotation
                                        End Site
                                        {
                                            OFFSET  -2.582190   0.000000   0.000000
                                        }
                                    }
                                }
                            }
                            JOINT RightFinger1
                            {
                                OFFSET  -8.364480   0.000000   3.252850
                                CHANNELS 3 Zrotation Xrotation Yrotation
                                JOINT RightFinger11
                                {
                                    OFFSET  -4.646930   0.000000   0.000000
                                    CHANNELS 3 Zrotation Xrotation Yrotation
                                    JOINT RightFinger12
                                    {
                                        OFFSET  -2.323470   0.000000   0.000000
                                        CHANNELS 3 Zrotation Xrotation Yrotation
                                        End Site
                                        {
                                            OFFSET  -2.273050   0.000000   0.000000
                                        }
                                    }
                                }
                            }
                            JOINT RightFinger2
                            {
                                OFFSET  -8.364480   0.000000   1.078090
                                CHANNELS 3 Zrotation Xrotation Yrotation
                                JOINT RightFinger21
                                {
                                    OFFSET  -5.111620   0.000000   0.000000
                                    CHANNELS 3 Zrotation Xrotation Yrotation
                                    JOINT RightFinger22
                                    {
                                        OFFSET  -2.788160   0.000000   0.000000
                                        CHANNELS 3 Zrotation Xrotation Yrotation
                                        End Site
                                        {
                                            OFFSET  -2.727660   0.000000   0.000000
                                        }
                                    }
                                }
                            }
                            JOINT RightFinger3
                            {
                                OFFSET  -7.899780   0.000000  -1.078090
                                CHANNELS 3 Zrotation Xrotation Yrotation
                                JOINT RightFinger31
                                {
                                    OFFSET  -4.646930   0.000000   0.000000
                                    CHANNELS 3 Zrotation Xrotation Yrotation
                                    JOINT RightFinger32
                                    {
                                        OFFSET  -2.323470   0.000000   0.000000
                                        CHANNELS 3 Zrotation Xrotation Yrotation
                                        End Site
                                        {
                                            OFFSET  -2.273050   0.000000   0.000000
                                        }
                                    }
                                }
                            }
                            JOINT RightFinger4
                            {
                                OFFSET  -7.435090   0.000000  -3.252850
                                CHANNELS 3 Zrotation Xrotation Yrotation
                                JOINT RightFinger41
                                {
                                    OFFSET  -3.717550   0.000000   0.000000
                                    CHANNELS 3 Zrotation Xrotation Yrotation
                                    JOINT RightFinger42
                                    {
                                        OFFSET  -1.858770   0.000000   0.000000
                                        CHANNELS 3 Zrotation Xrotation Yrotation
                                        End Site
                                        {
                                            OFFSET  -1.818440   0.000000   0.000000
                                        }
                                    }
                                }
                            }
                        }
                    }
                }
            }
        }
    }
    JOINT LeftHip
    {
        OFFSET   9.783040   0.000000   0.000000
        CHANNELS 3 Zrotation Xrotation Yrotation
        JOINT LeftKnee
        {
            OFFSET   0.000032 -41.789100  -0.002222
            CHANNELS 3 Zrotation Xrotation Yrotation
            JOINT LeftAnkle
            {
                OFFSET   0.000087 -41.133200  -0.000135
                CHANNELS 3 Zrotation Xrotation Yrotation
                JOINT LeftToe
                {
                    OFFSET   0.000000  -6.358960  14.674500
                    CHANNELS 3 Zrotation Xrotation Yrotation
                    End Site
                    {
                        OFFSET   0.000000   0.000000   3.913200
                    }
                }
            }
        }
    }
    JOINT RightHip
    {
        OFFSET  -9.783040   0.000000   0.000000
        CHANNELS 3 Zrotation Xrotation Yrotation
        JOINT RightKnee
        {
            OFFSET   0.000047 -41.789100  -0.000896
            CHANNELS 3 Zrotation Xrotation Yrotation
            JOINT RightAnkle
            {
                OFFSET  -0.000117 -41.133300  -0.000248
                CHANNELS 3 Zrotation Xrotation Yrotation
                JOINT RightToe
                {
                    OFFSET   0.000000  -6.358970  14.674500
                    CHANNELS 3 Zrotation Xrotation Yrotation
                    End Site
                    {
                        OFFSET   0.000000   0.000000   3.913200
                    }
                }
            }
        }
    }
}
MOTION
Frames: 6
Frame Time:   0.016667
  0.239960  89.402000  -0.844829  -2.525680  -6.082330  -1.930320   1.581150   4.912590  -0.954784   3.262580   9.796060  -2.057200  -0.543412  -0.924546  -0.003701  -0.892213  -1.871610   7.691100  -9.257800   1.875270   0.595178 -66.656000  11.159000  -2.907030  -2.236200  -7.342900 -18.441900   0.111517 -10.623700   6.811070  40.118800  24.771100 -59.243600 -22.348100  -0.001588  -0.000595  -6.163680  -0.000632  -0.002395 -32.163300   5.280730  -8.326530 -26.630100   0.005482  -0.000343 -18.641100   0.001001   0.004874 -28.399300   1.812960  -3.349450 -35.582800   0.003378   0.009444 -23.698200  -0.001017   0.007610 -28.168800  -1.140230   2.128160 -33.331200   0.005687  -0.000984 -22.198500  -0.006084   0.011490 -33.478000  -1.332290   2.013530 -50.252200  -0.000062  -0.000980 -33.467900  -0.000674   0.001224   6.854200  -0.841309   9.409840  71.320800   1.185430  -2.066420  -3.968990  -5.078410  18.407400  -8.061200 -15.065500  14.597600 -44.483900  38.546100  80.544400   9.617390   0.006020  -0.000997  -0.191300  -0.002480  -0.000238  33.584400   8.062930  11.927200  28.168500   0.004775  -0.003780  19.718000  -0.008636   0.000176  28.477100   4.485210   8.203600  42.761200   0.001870  -0.005697  28.479000   0.001021  -0.000705  29.775100   2.616090   4.561340  44.819100   0.008170  -0.003899  29.849500   0.001419  -0.003554  37.747000  -0.446325  -0.576469  56.623900  -0.005580  -0.001009  37.711500   0.009854  -0.007898   3.803590   8.703820   3.309060   1.408790   0.221123  12.217200  -3.336640  -1.615320   3.580210  -0.000000   0.000000   0.000000   1.573600   0.479770   1.268720  -0.125583  10.019800  -9.420250  -2.019450  -3.532350  -3.967730  -0.000000   0.000000  -0.000000
  0.239450  89.402000  -0.859821  -2.524650  -6.098150  -1.915780   1.581170   4.931090  -0.956481   3.263280   9.833000  -2.061360  -0.543312  -0.921846  -0.003704  -0.892644  -1.867300   7.690130  -9.263410   1.875270   0.595178 -66.643800  11.214900  -2.915570  -2.229980  -7.353770 -18.504200   0.104659 -10.660500   6.765020  40.039300  24.637400 -59.266000 -22.348500  -0.001613  -0.000586  -6.163590  -0.000643  -0.002395 -32.170900   5.298240  -8.351240 -26.638400   0.005482  -0.000343 -18.646900   0.001001   0.004874 -28.398700   1.817290  -3.356920 -35.623500   0.003371   0.009447 -23.725300  -0.001016   0.007612 -28.175100  -1.137310   2.122040 -33.380700   0.005687  -0.000989 -22.231500  -0.006083   0.011490 -33.516100  -1.330160   2.006830 -50.309300  -0.000062  -0.000985 -33.506000  -0.000674   0.001220   6.856610  -0.851885   9.413080  71.314600   1.214850  -2.067340  -3.961410  -5.098280  18.413300  -8.050670 -15.071200  14.708200 -44.514300  38.765600  80.859600   9.126540   0.006023  -0.000947  -0.436732  -0.002488  -0.000233  33.544100   8.123720  12.032100  28.144100   0.004780  -0.003777  19.701000  -0.008631   0.000178  28.472500   4.515240   8.259180  42.715500   0.001859  -0.005697  28.448600   0.001019  -0.000698  29.772400   2.648900   4.618760  44.820100   0.008172  -0.003893  29.850200   0.001414  -0.003554  37.730000  -0.446250  -0.576374  56.598400  -0.005583  -0.001007  37.694500   0.009857  -0.007902   3.803160   8.710680   3.309490   1.404450   0.223379  12.212400  -3.337190  -1.605330   3.569910  -0.000000   0.000000   0.000000   1.573700   0.478390   1.280700  -0.122859  10.038300  -9.421230  -2.008300  -3.540780  -3.991960   0.000000   0.000000   0.000000
  0.237871  89.402000  -0.883539  -2.523110  -6.124710  -1.893350   1.581290   4.961330  -0.958195   3.264360   9.893420  -2.065670  -0.543140  -0.914802  -0.003710  -0.893172  -1.854530   7.687530  -9.271360   1.875290   0.595178 -66.619900  11.296900  -2.931160  -2.223680  -7.362460 -18.617200   0.080732 -10.738000   6.684730  39.926400  24.458500 -59.280900 -22.349000  -0.001680  -0.000578  -6.163440  -0.000675  -0.002399 -32.178600   5.315750  -8.375950 -26.646700   0.005481  -0.000342 -18.652700   0.001000   0.004875 -28.398200   1.821610  -3.364390 -35.664300   0.003353   0.009454 -23.752400  -0.001014   0.007615 -28.183500  -1.134390   2.115920 -33.441700   0.005686  -0.001003 -22.272200  -0.006079   0.011491 -33.568000  -1.328020   2.000120 -50.386800  -0.000063  -0.000999 -33.557600  -0.000674   0.001209   6.862520  -0.862447   9.421740  71.292000   1.252790  -2.073660  -3.950950  -5.117200  18.451600  -8.026720 -15.087100  14.919900 -44.579000  39.164000  81.440300   8.310150   0.006027  -0.000798  -0.844935  -0.002508  -0.000214  33.484700   8.226070  12.204400  28.117300   0.004786  -0.003774  19.682200  -0.008624   0.000180  28.465600   4.560090   8.342270  42.651700   0.001832  -0.005696  28.406000   0.001008  -0.000684  29.774200   2.696370   4.700750  44.827300   0.008181  -0.003883  29.855000   0.001410  -0.003554  37.712900  -0.446175  -0.576279  56.572800  -0.005587  -0.001005  37.677500   0.009861  -0.007911   3.802390   8.723100   3.310110   1.399920   0.226599  12.202400  -3.338050  -1.590290   3.559600  -0.000000   0.000000   0.000000   1.573890   0.477010   1.292670  -0.118421  10.064000  -9.425070  -1.992340  -3.552640  -4.016290  -0.000000   0.000000   0.000000
  0.234834  89.402100  -0.900011  -2.522330  -6.146800  -1.879710   1.581390   4.984630  -0.956165   3.264930   9.940050  -2.062230  -0.542950  -0.904027  -0.003715  -0.892727  -1.832910   7.682010  -9.275190   1.878690   0.595829 -66.591200  11.345200  -2.948440  -2.229310  -7.352880 -18.720400   0.022149 -10.839600   6.606930  39.899300  24.403800 -59.258000 -22.349200  -0.001787  -0.000643  -6.163240  -0.000729  -0.002412 -32.167700   5.299870  -8.356490 -26.636200   0.005481  -0.000342 -18.645300   0.000999   0.004875 -28.400000   1.805530  -3.334750 -35.657300   0.003325   0.009462 -23.747800  -0.001014   0.007620 -28.184200  -1.155150   2.154620 -33.452900   0.005683  -0.001023 -22.279700  -0.006074   0.011492 -33.581200  -1.352620   2.036510 -50.407900  -0.000062  -0.001021 -33.571600  -0.000674   0.001192   6.871720  -0.856442   9.436120  71.248700   1.262700  -2.094840  -3.956420  -5.079360  18.533900  -7.998830 -15.126100  15.155100 -44.660700  39.588000  82.064100   7.635430   0.004589  -0.000504  -1.182290  -0.002541  -0.000175  33.461300   8.316820  12.344800  28.115600   0.004786  -0.003776  19.681000  -0.008621   0.000182  28.461500   4.586170   8.390540  42.638100   0.001796  -0.005688  28.396900   0.000980  -0.000669  29.795300   2.722260   4.741640  44.860800   0.008200  -0.003876  29.877300   0.001414  -0.003555  37.730200  -0.446245  -0.576376  56.598700  -0.005591  -0.001001  37.694800   0.009862  -0.007924   3.801270   8.732160   3.310410   1.402850   0.228198  12.188400  -3.344490  -1.585020   3.559670  -0.000000   0.000000   0.000000   1.573900   0.486526   1.292650  -0.114051  10.072900  -9.435930  -1.986350  -3.556920  -4.016410   0.000000   0.000000   0.000000
  0.231406  89.402100  -0.914643  -2.521620  -6.168310  -1.867170   1.581440   5.006480  -0.952951   3.265330   9.983820  -2.056640  -0.542833  -0.889798  -0.003719  -0.892454  -1.803940   7.678050  -9.276730   1.886330   0.596983 -66.562200  11.368000  -2.963380  -2.240960  -7.342190 -18.848600  -0.050421 -10.949100   6.537210  39.879600  24.366000 -59.246200 -22.349300  -0.001922  -0.000747  -6.163120  -0.000798  -0.002426 -32.145900   5.284000  -8.337040 -26.616500   0.005482  -0.000342 -18.631500   0.000996   0.004875 -28.401800   1.789440  -3.305100 -35.642800   0.003290   0.009473 -23.738100  -0.001013   0.007625 -28.183400  -1.175910   2.193330 -33.457100   0.005680  -0.001050 -22.282500  -0.006067   0.011493 -33.585300  -1.377210   2.072900 -50.415300  -0.000060  -0.001048 -33.576600  -0.000674   0.001170   6.882580  -0.843800   9.453170  71.189800   1.264080  -2.138150  -3.979770  -4.990070  18.672500  -7.953530 -15.146800  15.406600 -44.751300  39.982200  82.658200   7.013050   0.002580  -0.000210  -1.493470  -0.002583  -0.000137  33.442900   8.395910  12.466000  28.114000   0.004786  -0.003778  19.679800  -0.008617   0.000185  28.458900   4.604000   8.423630  42.615700   0.001750  -0.005678  28.382000   0.000948  -0.000650  29.811800   2.733480   4.757950  44.888100   0.008229  -0.003867  29.895400   0.001418  -0.003555  37.747400  -0.446316  -0.576474  56.624600  -0.005593  -0.000999  37.712000   0.009863  -0.007941   3.799350   8.748240   3.310620   1.405980   0.228837  12.174700  -3.351230  -1.574940   3.559720  -0.000000   0.000000  -0.000000   1.573690   0.501487   1.292480  -0.108665  10.078400  -9.450130  -1.983910  -3.559520  -4.016430   0.000000   0.000000   0.000000
  0.228648  89.402100  -0.927328  -2.520680  -6.187060  -1.853530   1.581490   5.025400  -0.950316   3.265720  10.021700  -2.052080  -0.542849  -0.872289  -0.003717  -0.893264  -1.768430   7.681970  -9.275960   1.897050   0.598122 -66.539100  11.368700  -2.968860  -2.259580  -7.345790 -19.019900  -0.114135 -11.033000   6.502750  39.831100  24.298100 -59.272000 -22.343000  -0.002077  -0.000819  -6.163130  -0.000877  -0.002432 -32.117800   5.297340  -8.365010 -26.595200   0.005481  -0.000342 -18.616600   0.000990   0.004874 -28.400800   1.797560  -3.320370 -35.619400   0.003250   0.009487 -23.722500  -0.001010   0.007630 -28.184600  -1.170940   2.184030 -33.462200   0.005677  -0.001081 -22.285900  -0.006057   0.011495 -33.591100  -1.371470   2.064050 -50.423500  -0.000060  -0.001081 -33.582000  -0.000674   0.001146   6.893180  -0.826606   9.469460  71.116900   1.243690  -2.205630  -4.032630  -4.858840  18.885300  -7.844650 -15.121000  15.640100 -44.808600  40.220500  83.008700   6.547030   0.001877  -0.000072  -1.726490  -0.002632  -0.000128  33.422200   8.435460  12.531000  28.107000   0.004786  -0.003773  19.674800  -0.008610   0.000190  28.459000   4.608430   8.431940  42.526600   0.001692  -0.005675  28.322700   0.000925  -0.000626  29.812100   2.726830   4.746760  44.887000   0.008272  -0.003852  29.894700   0.001414  -0.003552  37.745100  -0.445691  -0.575732  56.621100  -0.005590  -0.000998  37.709700   0.009862  -0.007963   3.796220   8.790840   3.309270   1.413130   0.175945  12.167200  -3.351340  -1.538260   3.558570  -0.000000   0.000000  -0.000000   1.573400   0.511225   1.292100  -0.102675  10.086600  -9.463280  -1.982900  -3.562610  -4.016140  -0.000000   0.000000   0.000000
